<?xml version="1.0" encoding="UTF-8" standalone="no"?>
<svg
   width="4000"
   height="4000"
   viewBox="0 0 4000 4000"
   version="1.1"
   id="svg40"
   sodipodi:docname="MW-sketch.svg"
   xml:space="preserve"
   inkscape:version="1.4.2 (ebf0e940d0, 2025-05-08)"
   xmlns:inkscape="http://www.inkscape.org/namespaces/inkscape"
   xmlns:sodipodi="http://sodipodi.sourceforge.net/DTD/sodipodi-0.dtd"
   xmlns:xlink="http://www.w3.org/1999/xlink"
   xmlns="http://www.w3.org/2000/svg"
   xmlns:svg="http://www.w3.org/2000/svg"><defs
     id="defs40"><linearGradient
       id="linearGradient41"
       inkscape:collect="always"><stop
         style="stop-color:#800051;stop-opacity:1;"
         offset="0"
         id="stop41" /><stop
         style="stop-color:#800051;stop-opacity:0;"
         offset="1"
         id="stop42" /></linearGradient><radialGradient
       inkscape:collect="always"
       xlink:href="#linearGradient41"
       id="radialGradient42"
       cx="2041.5225"
       cy="1838.2352"
       fx="2041.5225"
       fy="1838.2352"
       r="1059.6886"
       gradientUnits="userSpaceOnUse"
       gradientTransform="matrix(1.8873468,0,0,1.8873468,-5853.0611,-1469.3877)" /></defs><sodipodi:namedview
     id="namedview40"
     pagecolor="#ffffff"
     bordercolor="#666666"
     borderopacity="1.0"
     inkscape:showpageshadow="2"
     inkscape:pageopacity="0.0"
     inkscape:pagecheckerboard="0"
     inkscape:deskcolor="#d1d1d1"
     inkscape:zoom="0.2155945"
     inkscape:cx="2321.4878"
     inkscape:cy="1723.1423"
     inkscape:window-width="1920"
     inkscape:window-height="1053"
     inkscape:window-x="0"
     inkscape:window-y="0"
     inkscape:window-maximized="1"
     inkscape:current-layer="svg40" /><circle
     style="font-variation-settings:normal;opacity:1;vector-effect:none;fill:url(#radialGradient42);fill-opacity:1;fill-rule:evenodd;stroke-width:1.88735;stroke-linecap:butt;stroke-linejoin:miter;stroke-miterlimit:4;stroke-dasharray:none;stroke-dashoffset:0;stroke-opacity:1;-inkscape-stroke:none;stop-color:#000000;stop-opacity:1"
     id="path41"
     cx="-2000"
     cy="2000"
     transform="scale(-1,1)"
     r="2000" /><path
     fill-rule="nonzero"
     fill="#f8d092"
     fill-opacity="1"
     d="m 2050.4151,1972.9172 c 0,11.9076 -5.9572,23.3242 -16.5603,31.7473 -10.6044,8.4164 -24.9847,13.1473 -39.9829,13.1473 -14.9954,0 -29.3784,-4.7309 -39.9801,-13.1473 -10.6058,-8.4231 -16.563,-19.8397 -16.563,-31.7473 0,-11.9075 5.9572,-23.3281 16.563,-31.7472 10.6017,-8.4231 24.9847,-13.1514 39.9801,-13.1514 14.9982,0 29.3785,4.7283 39.9829,13.1514 10.6031,8.4191 16.5603,19.8397 16.5603,31.7472 z m 0,0"
     id="path1"
     style="stroke-width:0.345343" /><path
     fill-rule="nonzero"
     fill="#3ff0e0"
     fill-opacity="1"
     d="m 2040.6753,1903.8446 c -2.1273,0.046 -5.2044,0.3912 -5.5592,3.0123 -0.1173,2.4728 2.5523,3.5358 4.5232,4.1469 14.7054,4.8941 29.5929,9.5077 43.8518,15.5471 20.5856,8.527 40.5535,18.6593 59.202,30.7949 15.361,10.1768 29.8586,22.4783 39.8911,38.1738 7.0242,11.0025 11.6998,23.6358 12.0007,36.6239 0.3453,17.2739 -7.2037,33.8881 -18.1683,46.9316 -11.2547,13.4171 -26.2299,23.8043 -42.0522,31.4612 -24.6057,11.8455 -51.8567,17.2874 -78.9594,18.2479 -34.2901,1.1021 -68.2983,-5.5565 -100.7025,-16.6008 -12.1288,-3.9363 -23.8839,-8.8885 -35.9669,-13.0812 -1.7685,-0.7567 -4.6662,-0.6421 -5.2327,1.5541 -0.5342,2.9206 2.4147,4.7134 4.341,6.3187 10.7717,8.0292 23.0071,13.7975 35.2115,19.2744 43.8963,19.1139 93.2425,26.9327 140.6678,18.9723 28.4503,-4.82 56.2882,-15.4568 79.3115,-33.0868 16.8395,-12.9881 31.0889,-30.0867 38.0781,-50.3715 5.025,-14.2805 6.2512,-29.9477 2.9043,-44.7462 -3.9404,-18.3476 -13.9904,-34.9524 -26.9569,-48.3479 -16.795,-17.6328 -38.0228,-30.3214 -59.9831,-40.4605 -23.231,-10.8405 -47.6951,-19.5051 -73.1061,-23.3861 -4.3991,-0.6462 -8.844,-1.0671 -13.2957,-0.9781 z m 0,0"
     id="path2"
     style="stroke-width:0.345343" /><path
     fill-rule="nonzero"
     fill="#3ff0e0"
     fill-opacity="1"
     d="m 1844.7635,1801.1645 c -13.6141,1.0118 -26.7196,5.28 -39.5148,9.8045 -20.185,7.379 -39.8696,17.5532 -55.1024,32.987 -11.8347,11.9696 -20.359,27.5586 -22.4378,44.3833 -2.4377,18.6687 2.4902,37.6558 11.1238,54.1743 11.0199,21.3492 27.3023,39.566 45.4166,55.1644 28.6216,24.4883 61.985,43.1719 97.2585,56.2248 32.9141,12.06 67.8841,19.2016 103.0295,18.7187 29.5888,-0.4317 59.4192,-6.7963 85.6342,-20.811 10.8716,-5.9679 21.2912,-13.1122 29.6617,-22.3407 1.72,-2.1301 3.6544,-4.2857 4.5583,-6.9028 0.5423,-1.9925 -1.4057,-4.2898 -3.467,-3.4184 -3.5222,1.26 -6.2849,3.9364 -9.4834,5.8048 -21.4005,14.1901 -45.9063,23.2486 -71.258,26.9232 -27.2915,4.0645 -55.1954,2.1058 -82.0769,-3.3779 -31.53,-6.5102 -61.9485,-18.1305 -90.187,-33.4739 -25.3989,-13.9244 -49.2073,-31.1402 -69.051,-52.3329 -12.0897,-13.1824 -22.651,-28.2183 -28.4625,-45.2642 -3.6018,-10.9094 -4.9805,-22.6618 -2.2312,-33.9542 2.9664,-13.2957 11.2438,-24.7649 21.1279,-33.872 14.3385,-13.185 32.0238,-22.1221 49.5918,-30.0299 9.652,-4.3654 19.5388,-7.9955 29.3393,-12.029 1.6862,-0.7905 3.6058,-2.6076 2.4835,-4.5933 -1.2371,-1.9952 -3.9202,-1.8266 -5.9531,-1.7848 z m 0,0"
     id="path3"
     style="stroke-width:0.345343" /><path
     fill-rule="nonzero"
     fill="#3ff0e0"
     fill-opacity="1"
     d="m 2147.1178,1839.932 c -44.3563,0.8363 -88.8057,6.0097 -131.6525,17.7541 -30.2688,8.4717 -59.917,20.3509 -86.0038,38.1023 -12.4459,8.585 -24.2563,18.4624 -33.3634,30.6249 -1.1844,1.8684 -2.76,3.8541 -2.7519,6.1501 0.3925,2.4147 3.7812,2.8153 5.2354,1.1048 7.3831,-5.5659 14.4451,-11.569 22.1708,-16.6722 21.5596,-14.7809 45.5434,-25.8009 70.3393,-33.7573 31.209,-10.0527 63.574,-15.8169 96.0916,-19.1179 46.5376,-4.646 93.7916,-3.8541 140.2712,1.2006 40.1016,4.507 79.9158,12.2988 118.3837,24.7068 26.4876,8.7159 52.3775,19.5834 75.9781,34.506 15.1371,9.6493 29.1856,21.0011 40.3296,35.1669 8.1533,10.3698 14.2832,22.3947 17.0702,35.2385 2.6831,12.1935 2.0586,24.8957 -0.7878,37.0515 -2.3446,10.0702 -5.9289,20.0582 -10.363,29.4755 -1.6782,3.6396 -3.8163,7.1065 -5.0871,10.9053 -0.3183,2.3864 2.8383,4.0483 4.6271,2.4322 5.0182,-3.4817 8.3476,-8.7927 11.5865,-13.846 7.1079,-11.828 12.2327,-24.8877 14.8781,-38.4397 3.1701,-17.0567 1.3085,-34.9929 -5.3704,-51.0109 -8.4096,-20.5411 -23.4698,-37.6868 -40.5292,-51.5761 -23.4873,-19.118 -50.8558,-32.8669 -78.9459,-43.8383 -38.8443,-15.0157 -79.7013,-24.3048 -120.8875,-30.0785 -33.5158,-4.6284 -67.3904,-6.5858 -101.2191,-6.0826 z m 0,0"
     id="path4"
     style="stroke-width:0.345343" /><path
     fill-rule="nonzero"
     fill="#3ff0e0"
     fill-opacity="1"
     d="m 1930.5946,1854.2367 c -12.9503,1.0468 -25.4002,5.2139 -37.498,9.7357 -17.8985,6.9271 -35.4772,15.4743 -50.3094,27.823 -9.8355,8.3409 -18.5824,18.894 -21.7944,31.6299 -2.9799,11.0618 -0.9186,23.1042 4.7215,32.9775 6.6748,12.0425 17.425,21.1482 28.6486,28.8119 7.1146,4.6513 14.6015,9.0342 22.8277,11.3693 2.2515,0.4034 4.9764,1.2532 7.004,-0.2145 1.7361,-1.3395 1.5702,-4.0375 0,-5.4459 -3.7165,-4.4409 -8.4852,-7.8188 -12.6576,-11.801 -8.7334,-7.8943 -17.5882,-16.1407 -24.2914,-25.7456 -4.6513,-6.9095 -8.0157,-15.6645 -5.6145,-24.0107 2.7654,-9.5738 10.166,-16.8571 17.5639,-23.1218 12.9571,-10.6948 27.9242,-18.523 42.6256,-26.497 10.7056,-5.6711 21.7458,-10.7272 32.2477,-16.7734 1.9371,-1.1641 4.3721,-2.8531 4.2723,-5.3676 -0.5464,-3.5533 -5.0251,-3.4629 -7.746,-3.3698 z m 0,0"
     id="path5"
     style="stroke-width:0.345343" /><path
     fill-rule="nonzero"
     fill="#3ff0e0"
     fill-opacity="1"
     d="m 1644.6846,1936.207 c -3.0744,1.0226 -3.3671,4.7768 -3.7273,7.5004 -1.0873,11.4247 1.0441,22.9343 4.4233,33.8234 5.7252,17.8647 16.5738,33.7573 29.9073,46.8209 18.6053,18.3207 41.5908,31.5274 65.3439,41.9942 24.9645,10.8851 51.1836,18.6418 77.6846,24.7649 13.7341,3.0703 27.6342,5.8573 41.7352,6.4131 2.524,-0.024 5.4972,0.038 7.4654,-1.7645 1.6066,-1.9655 0.011,-4.8145 -2.1234,-5.5781 -6.1541,-3.4534 -12.9921,-5.3906 -19.5806,-7.8147 -34.0689,-11.8658 -68.5506,-22.7508 -101.2934,-38.0228 -19.3243,-9.0747 -38.0956,-20.0676 -54.235,-33.9569 -14.3249,-12.4148 -26.0572,-28.0146 -32.9451,-45.7444 -3.4184,-8.3368 -5.5296,-17.1255 -8.5297,-25.6039 -0.6233,-1.6741 -2.2002,-3.2835 -4.1252,-2.8316 z m 0,0"
     id="path6"
     style="stroke-width:0.345343" /><path
     fill-rule="nonzero"
     fill="#3ff0e0"
     fill-opacity="1"
     d="m 2140.8423,1895.0937 c -2.4485,0.1282 -5.6456,0.1214 -6.8583,2.7223 -0.6422,2.5266 1.7712,4.2439 3.8338,5.0075 12.6873,5.141 25.8656,8.9924 38.619,13.9755 31.3952,11.8456 62.0174,25.9628 90.0239,44.525 17.4991,11.7133 33.9124,25.5351 47.2256,41.804 12.149,14.9738 21.5529,32.9978 23.7625,52.2506 2.1247,17.4115 -1.7267,34.9511 -7.7553,51.2308 -0.8985,3.0258 -2.7493,5.8816 -2.7776,9.1003 0.08,1.84 1.8549,3.1567 3.6436,2.6764 3.0191,-0.777 5.0534,-3.4709 7.0242,-5.7089 7.7703,-9.5239 12.2192,-21.2737 15.3192,-33.0356 4.7768,-19.2973 2.9287,-40.0085 -4.5339,-58.3831 -9.4835,-23.9258 -26.7466,-43.9449 -46.2517,-60.3662 -27.5438,-23.138 -60.1894,-39.4864 -93.9845,-51.3805 -18.9493,-6.5858 -38.4855,-11.8523 -58.4708,-14.0134 -2.9314,-0.3008 -5.8735,-0.4627 -8.8197,-0.4047 z m 0,0"
     id="path7"
     style="stroke-width:0.345343" /><path
     fill-rule="nonzero"
     fill="#36b2f8"
     fill-opacity="1"
     d="m 2078.4013,1771.6755 c -41.8593,0.9915 -83.604,8.8238 -122.8354,23.4968 -13.1406,5.0452 -26.1395,10.7124 -38.1361,18.1278 -2.4174,1.7024 -5.0803,3.4076 -6.6479,5.9733 -0.9766,2.149 0.8499,4.8874 3.2565,4.5799 5.6429,-0.024 11.0199,-2.0653 16.4456,-3.3847 21.5839,-5.891 43.0222,-12.1004 64.9663,-16.5211 41.2779,-8.5742 83.4933,-13.0057 125.7317,-11.3302 17.0567,0.5558 34.0675,2.6831 51.1175,4.1684 2.787,0.082 6.1743,0.7352 8.5647,-1.1844 1.917,-1.9965 0.1214,-5.0534 -1.9992,-6.0476 -7.3911,-4.6621 -15.9451,-6.9648 -24.2576,-9.3755 -24.7918,-6.6654 -50.5927,-8.9141 -76.2061,-8.5027 z m 0,0"
     id="path8"
     style="stroke-width:0.345343" /><path
     fill-rule="nonzero"
     fill="#36b2f8"
     fill-opacity="1"
     d="m 1589.0682,1863.6338 c -3.6099,0.7312 -6.084,3.7947 -8.6889,6.1501 -9.9556,10.112 -17.7204,22.168 -24.3399,34.6583 -10.0433,19.6603 -14.932,42.1737 -12.4081,64.2068 2.6144,23.8422 13.3133,46.1923 27.7543,65.1106 16.2081,21.2035 36.7614,38.7297 58.7393,53.7035 31.0417,21.0254 65.1713,37.1594 100.295,50.0788 45.7094,16.7248 93.418,27.9282 141.7457,33.6844 34.1336,3.9889 68.7097,5.2287 102.9607,1.9304 9.9772,-1.0495 20.0258,-2.2758 29.6374,-5.2449 1.9439,-0.5491 4.4827,-2.3068 3.502,-4.6244 -1.3854,-2.5873 -4.8523,-2.0073 -7.3007,-2.18 -14.097,-0.2239 -28.2008,0.139 -42.2937,-0.4141 -61.2957,-1.8508 -122.2757,-12.2839 -181.0298,-29.9679 -35.4003,-10.7852 -70.0843,-24.2536 -102.819,-41.5895 -26.9435,-14.4424 -52.9103,-31.3723 -74.5684,-53.1181 -15.303,-15.3637 -28.5434,-33.4146 -35.3545,-54.1945 -4.6041,-13.7935 -5.9747,-28.739 -3.9998,-43.0195 2.2785,-17.7635 9.5415,-34.4101 18.1238,-49.8156 3.4925,-6.3403 7.406,-12.4283 11.2492,-18.5514 0.943,-1.7686 2.7034,-4.0578 1.0401,-5.9504 -0.545,-0.6287 -1.4191,-0.9808 -2.2447,-0.8526 z m 0,0"
     id="path9"
     style="stroke-width:0.345343" /><path
     fill-rule="nonzero"
     fill="#3ff0e0"
     fill-opacity="1"
     d="m 2131.0755,2045.2841 c -3.2416,0.4694 -4.6378,3.8851 -6.6195,6.0772 -5.5228,7.5395 -12.6401,14.2049 -21.2763,18.1615 -12.6469,6.0476 -26.7061,8.1223 -40.4888,9.7978 -17.6435,1.9722 -35.515,2.1624 -53.2097,3.9404 -4.8321,0.5558 -9.9907,1.0117 -14.321,3.1431 -2.0869,1.3018 -2.0626,4.8551 0.3723,5.767 4.4652,2.3243 9.6346,2.5307 14.5152,3.3185 22.968,2.8208 46.4271,3.3536 69.2898,-0.6664 15.3907,-2.7695 30.8691,-8.4474 42.3113,-19.4633 7.0862,-6.807 12.5807,-16.169 12.3527,-26.246 -0.1524,-1.2398 -0.3831,-2.8289 -1.2748,-3.6302 -0.549,-0.062 -1.0981,-0.1929 -1.6512,-0.1996 z m 0,0"
     id="path10"
     style="stroke-width:0.345343" /><path
     fill-rule="nonzero"
     fill="#36b2f8"
     fill-opacity="1"
     d="m 2069.6328,1810.9232 c -26.1799,0.3628 -52.8023,4.1751 -76.7281,15.2719 -6.0745,3.0177 -12.4768,6.0085 -17.1498,11.0402 -1.4812,1.751 -0.8323,5.0736 1.7065,5.3218 4.2574,0.3251 8.2734,-1.5095 12.3487,-2.4687 15.1263,-4.4247 30.3484,-8.1304 45.9589,-10.4061 20.8622,-3.1418 41.9619,-3.9742 62.9549,-6.1609 4.7768,-0.6488 9.8086,-0.9078 14.2009,-3.042 2.037,-1.2882 1.8994,-4.766 -0.5113,-5.5632 -4.4301,-2.1098 -9.4375,-2.1935 -14.2143,-2.8423 -9.4902,-0.9389 -19.0317,-1.233 -28.5664,-1.1507 z m 0,0"
     id="path11"
     style="stroke-width:0.345343" /><path
     fill-rule="nonzero"
     fill="#3ff0e0"
     fill-opacity="1"
     d="m 2293.9883,1900.6961 c -2.5968,-0.2631 -5.284,2.7236 -3.6679,5.1558 2.7735,3.8056 7.2184,5.798 11.0239,8.3706 15.1668,9.2689 30.486,18.8103 42.1076,32.4177 10.2874,11.7996 17.1835,25.9735 24.1146,39.8763 1.9412,3.5127 3.7165,7.2562 6.4968,10.1849 1.6538,1.5432 4.824,1.2559 5.5039,-1.1372 1.4029,-3.9337 0.2455,-8.1803 -0.3697,-12.1558 -3.5667,-18.2236 -11.4273,-35.8293 -23.749,-49.8225 -14.294,-15.8439 -33.5536,-27.0581 -54.2525,-32.1034 -2.3621,-0.5315 -4.7795,-0.9011 -7.2077,-0.7864 z m 0,0"
     id="path12"
     style="stroke-width:0.345343" /><path
     fill-rule="nonzero"
     fill="#36b2f8"
     fill-opacity="1"
     d="m 2257.5748,2016.9444 c -2.3378,0.5113 -2.5765,3.4683 -1.9546,5.3744 2.4457,11.8172 4.283,23.8381 4.5623,35.8563 0.3736,13.9594 -0.6705,27.8837 -4.7795,41.3345 -5.2463,17.7366 -16.3485,33.3742 -30.3592,45.3047 -17.4155,14.9361 -38.4436,24.7095 -59.9129,32.384 -35.8603,12.5807 -73.6592,18.1993 -111.2111,22.8128 -31.9375,3.8366 -64.0787,6.1636 -96.2131,8.1736 -5.1693,0.429 -10.4736,0.4317 -15.481,1.8656 -2.1625,0.97 -2.0788,4.5623 0.3278,5.1626 5.0627,1.8374 10.5397,1.917 15.848,2.466 25.0441,1.8549 50.2123,1.2262 75.2644,-0.1659 29.3879,-1.8266 58.7663,-4.7552 87.6928,-10.3428 29.8749,-5.9018 59.4678,-14.816 86.2494,-29.5376 19.6009,-10.8985 37.5627,-25.6417 49.5634,-44.7974 12.2071,-19.2043 17.2671,-42.4286 15.9235,-65.0283 -0.7082,-15.0534 -3.0905,-30.293 -9.3067,-44.1283 -1.1817,-2.4269 -2.3729,-5.28 -4.8766,-6.5791 -0.4249,-0.1511 -0.8876,-0.2266 -1.3369,-0.1551 z m 0,0"
     id="path13"
     style="stroke-width:0.345343" /><path
     fill-rule="nonzero"
     fill="#36b2f8"
     fill-opacity="1"
     d="m 1698.6403,1878.4593 c -3.5519,0.6839 -5.28,4.368 -6.9028,7.2238 -6.9891,14.2562 -8.094,30.9298 -4.8645,46.3353 3.9958,18.2411 14.1213,34.9997 27.966,47.4671 2.7614,2.2757 5.6766,4.6999 9.1746,5.6806 2.2177,0.4695 4.7282,-1.5163 4.0132,-3.8716 -0.947,-4.2089 -3.8365,-7.6043 -5.9153,-11.2924 -8.6781,-13.6438 -16.7006,-28.0524 -19.8424,-44.065 -2.2919,-10.7757 -2.3027,-22.0884 -1.0104,-33.1461 0.2469,-3.6504 0.9861,-7.3143 0.7433,-10.9795 -0.174,-1.7335 -1.4286,-3.5398 -3.3617,-3.3522 z m 0,0"
     id="path14"
     style="stroke-width:0.345343" /><path
     fill-rule="nonzero"
     fill="#36b2f8"
     fill-opacity="1"
     d="m 1610.5631,1906.3794 c -3.0393,0.7986 -4.2655,4.1482 -5.4958,6.718 -8.0589,19.1517 -7.8593,41.2954 -0.7298,60.7007 3.9701,11.2331 9.389,22.0183 16.37,31.6852 1.2748,1.7267 3.5034,4.0821 5.8115,2.7871 2.3607,-1.6067 1.291,-4.8807 0.5976,-7.1079 -3.4062,-11.2439 -8.4069,-21.9401 -11.5218,-33.2811 -3.3576,-11.2857 -4.855,-22.8951 -4.1495,-34.6543 0.3035,-7.6394 1.6795,-15.1816 2.3567,-22.7791 0.086,-1.7888 -0.7271,-3.9823 -2.7803,-4.078 -0.1524,0.01 -0.3075,-0.024 -0.4586,0.01 z m 0,0"
     id="path15"
     style="stroke-width:0.345343" /><path
     fill-rule="nonzero"
     fill="#36b2f8"
     fill-opacity="1"
     d="m 1861.1834,1829.1616 c -11.3963,0.9699 -22.1572,5.3595 -32.4473,10.1039 -15.4379,7.4317 -29.8385,18.2789 -38.6002,33.2609 -7.4829,12.9948 -9.938,29.1113 -5.4971,43.5401 1.2356,3.5371 2.8072,7.1794 5.5632,9.7978 1.5473,1.6026 4.7525,1.3948 5.3663,-0.9942 0.9119,-3.1229 -0.093,-6.5035 -0.024,-9.5981 -0.6111,-11.6378 1.4826,-23.5171 7.719,-33.4389 2.8733,-4.6621 6.6343,-9.2069 10.5532,-12.9234 6.6384,-6.4091 14.5772,-11.9035 22.6105,-16.6965 8.7684,-5.2881 17.9672,-9.8288 26.8193,-14.9577 1.716,-1.2802 4.5057,-2.7074 3.9539,-5.2826 -0.5908,-2.7628 -3.7367,-2.9287 -6.0165,-2.8113 z m 0,0"
     id="path16"
     style="stroke-width:0.345343" /><path
     fill-rule="nonzero"
     fill="#3ff0e0"
     fill-opacity="1"
     d="m 2099.8503,1969.65 c -2.5455,-0.2037 -5.5605,2.1206 -4.538,4.8725 1.7955,3.8514 5.8196,5.8331 9.0518,8.2923 8.8683,6.0637 17.8269,12.1356 24.2252,20.9108 5.8466,7.5732 9.7627,16.4658 15.8345,23.8664 1.4367,1.8684 4.3681,3.6571 6.5238,1.8953 2.5307,-2.2717 1.6538,-6.0502 1.2464,-8.9991 -2.211,-12.1949 -7.5179,-24.0391 -16.0557,-33.1192 -9.0126,-9.3269 -21.0929,-15.8574 -33.9771,-17.6637 -0.7676,-0.08 -1.5406,-0.082 -2.3109,-0.055 z m 0,0"
     id="path17"
     style="stroke-width:0.345343" /><path
     fill-rule="nonzero"
     fill="#36b2f8"
     fill-opacity="1"
     d="m 2227.271,1810.9825 c -13.7516,0.3872 -27.6517,1.0873 -41.0094,4.6136 -2.3378,0.6596 -5.4702,1.5743 -6.0192,4.2857 -0.2483,2.6764 2.8382,3.8366 5.0385,3.9782 10.1296,1.3612 20.3792,1.2573 30.5668,1.8576 25.3301,1.0603 50.6507,3.1917 75.7124,7.1146 13.9418,2.072 27.8621,4.7862 41.8795,6.5237 2.3041,0.166 5.1775,0.5288 6.9352,-1.2775 1.6121,-2.1489 -0.4047,-4.8631 -2.4767,-5.7845 -7.4492,-4.5043 -15.871,-7.0323 -24.1214,-9.6291 -28.0011,-8.3503 -57.3134,-12.0762 -86.5057,-11.6823 z m 0,0"
     id="path18"
     style="stroke-width:0.345343" /><path
     fill-rule="nonzero"
     fill="#36b2f8"
     fill-opacity="1"
     d="m 2415.6933,1947.2688 c -2.4309,0.024 -3.4562,2.787 -2.9314,4.8375 2.497,10.0878 6.8515,19.613 9.6831,29.6064 4.5002,14.7634 6.8515,30.6384 4.9009,46.0236 -1.5756,13.8731 -6.3619,27.0649 -10.6193,40.2743 -0.4492,2.1827 -1.4299,4.5029 -0.8323,6.7301 0.8323,2.2906 4.0645,2.7115 5.6455,0.9497 4.6797,-3.7461 7.6016,-9.1543 10.5991,-14.2346 10.4843,-18.952 14.843,-41.5234 10.6813,-62.9009 -3.0555,-16.5279 -9.8517,-32.4339 -20.0299,-45.8335 -1.8575,-2.2582 -3.9849,-5.1046 -7.097,-5.4526 z m 0,0"
     id="path19"
     style="stroke-width:0.345343" /><path
     fill-rule="nonzero"
     fill="#f7f8b7"
     fill-opacity="1"
     d="m 2132.5297,1866.0053 c -0.9186,0.011 -1.7914,0.3845 -2.4349,1.0401 -0.6381,0.6529 -0.9942,1.5365 -0.9807,2.4552 0.022,1.9061 1.5824,3.4332 3.4925,3.4156 22.0048,-0.2522 45.3883,1.032 70.0412,4.337 1.8927,0.2523 3.6302,-1.0738 3.8824,-2.9664 0.255,-1.8886 -1.0738,-3.6288 -2.9664,-3.881 -24.9888,-3.3496 -48.7041,-4.6554 -71.0341,-4.4005 z m -22.8128,0.8121 c -132.184,7.9389 -210.3731,69.4207 -210.3731,69.4207 -1.4947,1.1817 -1.7537,3.3536 -0.5733,4.8523 1.1777,1.4987 3.3509,1.7577 4.8496,0.5801 0,0 76.2897,-60.1342 206.5109,-67.953 1.9035,-0.1173 3.3536,-1.755 3.239,-3.6611 -0.1174,-1.9021 -1.7537,-3.3496 -3.6531,-3.239 z m 124.7267,8.6714 c -1.8751,-0.3656 -3.6881,0.8566 -4.0537,2.7249 -0.3696,1.8751 0.8526,3.6882 2.725,4.0578 6.6923,1.3058 13.471,2.7628 20.3293,4.3748 0.8917,0.2118 1.8347,0.059 2.6117,-0.4236 0.7797,-0.4843 1.3368,-1.2572 1.5473,-2.1489 0.4344,-1.8576 -0.719,-3.7152 -2.5766,-4.1509 -6.9419,-1.6363 -13.8029,-3.1108 -20.583,-4.4341 z m 0,0"
     id="path20"
     style="stroke-width:0.345343" /><path
     fill-rule="nonzero"
     fill="#f7f8b7"
     fill-opacity="1"
     d="m 1767.7547,1934.7218 c -0.9146,-0.014 -1.7995,0.3359 -2.4551,0.974 -0.6597,0.6353 -1.0401,1.5095 -1.0536,2.4241 -0.014,0.9187 0.3345,1.8036 0.9699,2.4633 5.5916,5.7737 11.1657,11.2681 16.7222,16.486 1.3921,1.3059 3.5775,1.2357 4.8833,-0.1524 0.6287,-0.6691 0.9632,-1.5608 0.9362,-2.4754 -0.028,-0.9187 -0.4222,-1.7861 -1.0913,-2.4107 -5.4702,-5.1423 -10.9687,-10.5572 -16.4874,-16.2553 -0.6354,-0.6597 -1.5055,-1.0361 -2.4242,-1.0536 z m 29.3407,28.1522 c -0.916,0.062 -1.7686,0.491 -2.3689,1.1817 -1.2505,1.4434 -1.0953,3.622 0.3481,4.8726 12.9611,11.2479 25.7941,21.0348 38.4369,29.5227 0.7595,0.5113 1.6916,0.7015 2.5901,0.5261 0.9011,-0.1767 1.6916,-0.7055 2.2029,-1.465 0.5153,-0.7595 0.7015,-1.6957 0.5247,-2.5928 -0.1753,-0.8984 -0.7041,-1.6929 -1.4636,-2.2042 -12.3973,-8.326 -25.0063,-17.9403 -37.7597,-29.0048 -0.6948,-0.6016 -1.5959,-0.9011 -2.5105,-0.8363 z m 51.0513,37.9985 c -0.8903,0.2171 -1.6565,0.781 -2.1341,1.5607 -0.4721,0.7838 -0.6178,1.7268 -0.4006,2.6144 0.2212,0.8917 0.7837,1.6579 1.5689,2.1341 137.4248,83.2586 248.7007,15.5377 248.7007,15.5377 1.6269,-0.9982 2.1382,-3.1256 1.1399,-4.7525 -0.9983,-1.6269 -3.1256,-2.1341 -4.7512,-1.1358 0,0 -106.9011,65.9942 -241.5092,-15.558 -0.7838,-0.4762 -1.7227,-0.6178 -2.6144,-0.4006 z m 0,0"
     id="path21"
     style="stroke-width:0.345343" /><path
     fill-rule="nonzero"
     fill="#f7f8b7"
     fill-opacity="1"
     d="m 2037.8991,1915.8318 c -1.8549,-0.4425 -3.7192,0.7042 -4.1617,2.5631 -0.4411,1.8535 0.7015,3.7151 2.5564,4.1603 0,0 38.7917,9.2905 76.1858,29.5133 18.6931,10.1121 36.9719,22.9518 49.8049,38.4747 12.8371,15.5202 20.2754,33.5158 17.8715,54.7786 -0.2104,1.8954 1.1534,3.6046 3.0501,3.8191 1.8953,0.2144 3.6045,-1.1494 3.819,-3.0461 2.6319,-23.2998 -5.7224,-43.4025 -19.412,-59.9574 -13.6896,-16.5562 -32.666,-29.7723 -51.85,-40.1461 -38.3708,-20.7529 -77.864,-30.1595 -77.864,-30.1595 z m 137.6434,151.4395 c -0.8499,0.3427 -1.5298,1.005 -1.8927,1.8482 -2.1031,4.9386 -4.7282,10.0351 -7.9186,15.2949 -0.9915,1.6336 -0.4694,3.7569 1.1601,4.7484 1.6337,0.9875 3.757,0.4695 4.7485,-1.1601 3.3469,-5.5187 6.1231,-10.9093 8.3678,-16.1731 0.746,-1.7577 -0.069,-3.7839 -1.8265,-4.5299 -0.8391,-0.3602 -1.7888,-0.3696 -2.6386,-0.028 z m 0,0"
     id="path22"
     style="stroke-width:0.345343" /><path
     fill-rule="nonzero"
     fill="#f7f8b7"
     fill-opacity="1"
     d="m 2142.0644,1900.9025 c -1.84,-0.5005 -3.7394,0.58 -4.2439,2.4214 -0.2415,0.8836 -0.1241,1.8306 0.3319,2.6238 0.4519,0.7986 1.2046,1.3814 2.0896,1.6242 0,0 22.7022,6.2054 49.7077,17.7366 27.0029,11.5312 58.1835,28.5218 74.7263,49.0657 0.576,0.7149 1.4083,1.1709 2.3202,1.268 0.9146,0.096 1.8266,-0.17 2.5388,-0.746 0.7137,-0.5733 1.1696,-1.4097 1.2667,-2.3216 0.1,-0.9106 -0.1686,-1.8225 -0.746,-2.5375 -17.9996,-22.3582 -49.9263,-39.3515 -77.3945,-51.0797 -27.4655,-11.7281 -50.5968,-18.0549 -50.5968,-18.0549 z m 134.7916,81.0908 c -0.8633,-0.3076 -1.813,-0.259 -2.6426,0.1335 -1.7227,0.8189 -2.4552,2.8801 -1.6364,4.6041 1.8859,3.9647 3.1836,8.0185 3.8298,12.1734 0.1417,0.9052 0.6354,1.7159 1.3773,2.2582 0.7393,0.5423 1.6647,0.7635 2.5699,0.6246 0.9052,-0.1417 1.7159,-0.6354 2.2582,-1.3773 0.5423,-0.7393 0.7676,-1.6647 0.6259,-2.5699 -0.7568,-4.8752 -2.2757,-9.5724 -4.4139,-14.0727 -0.3939,-0.8323 -1.1021,-1.4677 -1.9682,-1.7739 z m 0,0"
     id="path23"
     style="stroke-width:0.345343" /><path
     fill-rule="nonzero"
     fill="#f7f8b7"
     fill-opacity="1"
     d="m 1930.3248,1866.5962 c -0.8566,-0.3251 -1.8063,-0.2968 -2.6413,0.08 -5.3596,2.4039 -10.3643,4.7552 -15.0292,7.0552 -1.7105,0.8431 -2.4106,2.9112 -1.5715,4.6244 0.8458,1.7132 2.9138,2.4174 4.627,1.5743 4.5866,-2.2583 9.5145,-4.5785 14.8052,-6.9514 1.7402,-0.7838 2.5173,-2.8248 1.7375,-4.5691 -0.3763,-0.835 -1.0711,-1.4879 -1.9277,-1.813 z m -30.7422,13.8973 c -34.1579,18.6202 -46.0682,33.2973 -49.0562,44.5317 -1.492,5.6186 -0.5423,10.2632 0.8876,13.3578 1.4299,3.0905 3.4912,4.917 3.4912,4.917 1.4434,1.2465 3.6261,1.0887 4.8726,-0.352 0.6016,-0.6907 0.9025,-1.5959 0.8364,-2.5105 -0.066,-0.9146 -0.4938,-1.7686 -1.1845,-2.3662 0,0 -0.8741,-0.7176 -1.7375,-2.586 -0.8633,-1.8724 -1.5648,-4.6135 -0.4829,-8.6821 2.1611,-8.1358 12.2866,-22.0399 45.681,-40.2459 0.8054,-0.4358 1.403,-1.1777 1.662,-2.0586 0.259,-0.8768 0.1592,-1.8238 -0.2806,-2.6278 -0.9146,-1.6782 -3.0137,-2.2933 -4.6891,-1.3774 z m 0,0"
     id="path24"
     style="stroke-width:0.345343" /><path
     fill-rule="nonzero"
     fill="#fdff96"
     fill-opacity="1"
     d="m 1680.9469,1965.0324 c -0.8512,-0.3413 -1.8023,-0.3278 -2.6454,0.031 -1.7523,0.7527 -2.5644,2.7843 -1.813,4.5353 18.867,44.0272 65.5625,71.3025 107.2033,87.8304 41.6421,16.5319 78.6666,22.3029 78.6666,22.3029 0.9038,0.1417 1.8306,-0.084 2.5725,-0.6219 0.7393,-0.5423 1.2357,-1.3544 1.3774,-2.2582 0.1389,-0.9052 -0.082,-1.8306 -0.6246,-2.5739 -0.5423,-0.7379 -1.3544,-1.233 -2.2582,-1.3732 0,0 -36.3379,-5.682 -77.1841,-21.8956 -40.8476,-16.2136 -85.7651,-42.9817 -103.4005,-84.1328 -0.3615,-0.8417 -1.0428,-1.5054 -1.894,-1.844 z m 0,0"
     id="path25"
     style="stroke-width:0.345343" /><path
     fill-rule="nonzero"
     fill="#fdff96"
     fill-opacity="1"
     d="m 2088.3502,1794.7339 c -8.1952,0.073 -16.4065,0.4492 -24.5194,1.0535 -0.9119,0.066 -1.7645,0.4938 -2.3621,1.1885 -0.5976,0.6934 -0.8944,1.5986 -0.8256,2.5132 0.066,0.9119 0.4938,1.7645 1.1885,2.3621 0.6934,0.5976 1.5986,0.8944 2.5145,0.8296 15.9573,-1.1885 32.2505,-1.4718 47.9258,-0.3049 0.9119,0.07 1.8171,-0.228 2.5105,-0.8283 0.6947,-0.5976 1.1223,-1.4474 1.1925,-2.362 0.069,-0.912 -0.232,-1.8171 -0.8297,-2.5105 -0.5976,-0.6948 -1.4461,-1.1224 -2.362,-1.1912 -8.0535,-0.6016 -16.2379,-0.8256 -24.433,-0.75 z m -41.8108,2.6804 c -54.0461,6.1191 -99.7595,20.5263 -99.7595,20.5263 -1.8158,0.5774 -2.8275,2.5146 -2.2515,4.3344 0.5706,1.8197 2.5105,2.8315 4.3316,2.2582 0,0 45.1846,-14.2211 98.4564,-20.2538 1.8967,-0.2145 3.2565,-1.9237 3.0434,-3.819 -0.2145,-1.8967 -1.9237,-3.2606 -3.8204,-3.0461 z m 95.8083,2.269 c -0.897,-0.201 -1.8333,-0.035 -2.6076,0.4587 -0.7729,0.4978 -1.3179,1.2775 -1.5149,2.1719 -0.4114,1.8656 0.7703,3.7097 2.6305,4.1198 4.9563,1.0886 9.7668,2.3904 14.3979,3.9134 0.8701,0.286 1.8198,0.2172 2.6386,-0.1969 0.8148,-0.4142 1.4394,-1.1332 1.7227,-2.0033 0.29,-0.8701 0.2185,-1.8198 -0.1929,-2.6386 -0.4142,-0.8175 -1.1332,-1.4394 -2.006,-1.7267 -4.8739,-1.6053 -9.9084,-2.9624 -15.0683,-4.0983 z m 0,0"
     id="path26"
     style="stroke-width:0.345343" /><path
     fill-rule="nonzero"
     fill="#fdff96"
     fill-opacity="1"
     d="m 2253.2999,2037.5233 c -0.8877,-0.2131 -1.8266,-0.065 -2.6076,0.4155 -0.7838,0.4789 -1.3436,1.2465 -1.5568,2.1368 -0.2145,0.8917 -0.066,1.8306 0.4142,2.6144 0,0 7.0512,11.4448 5.6563,29.0263 -1.3989,17.5814 -11.2101,41.2819 -47.0556,65.5288 -1.5784,1.0697 -1.9965,3.2146 -0.9268,4.797 1.0711,1.5783 3.216,1.9952 4.797,0.9254 37.1109,-25.1034 48.5072,-51.0149 50.072,-70.7062 1.5676,-19.694 -6.6519,-33.1799 -6.6519,-33.1799 -0.4762,-0.7838 -1.2464,-1.3436 -2.1408,-1.5581 z m -53.9598,105.3606 c -10.4534,6.3416 -22.7684,12.6603 -37.262,18.8427 -0.8431,0.3589 -1.5095,1.0388 -1.8548,1.8927 -0.3427,0.8485 -0.3319,1.8022 0.027,2.6454 0.3602,0.8417 1.0401,1.5081 1.8927,1.8508 0.8499,0.3413 1.7995,0.3305 2.6454,-0.028 14.7526,-6.2957 27.3684,-12.7641 38.1401,-19.2933 1.6296,-0.9915 2.1476,-3.1189 1.1601,-4.7484 -0.9915,-1.6337 -3.1148,-2.1517 -4.7484,-1.1615 z m -59.6512,27.6314 c -5.3596,1.9412 -10.9579,3.8568 -16.8072,5.7535 -0.8741,0.2792 -1.5958,0.8971 -2.014,1.7159 -0.4182,0.8148 -0.4937,1.7645 -0.2105,2.6387 0.5909,1.813 2.5388,2.8113 4.3519,2.2204 5.9221,-1.9169 11.596,-3.8608 17.0311,-5.829 1.7928,-0.6489 2.7249,-2.6278 2.0761,-4.4247 -0.3144,-0.8634 -0.9565,-1.5635 -1.7861,-1.9534 -0.8283,-0.3912 -1.7807,-0.4316 -2.6413,-0.1214 z m 0,0"
     id="path27"
     style="stroke-width:0.345343" /><path
     fill-rule="nonzero"
     fill="#fdff96"
     fill-opacity="1"
     d="m 1577.6651,1913.9527 c -0.9132,-0.082 -1.8211,0.201 -2.5253,0.7878 -0.7028,0.5868 -1.1453,1.4299 -1.2276,2.3418 -0.5679,6.2958 -0.7662,12.404 -0.63,18.3275 0.045,1.9088 1.6256,3.4183 3.5331,3.3765 0.9159,-0.02 1.7874,-0.4074 2.4201,-1.0697 0.6326,-0.6637 0.9766,-1.5514 0.9537,-2.466 -0.1295,-5.6604 0.063,-11.5069 0.6084,-17.5437 0.082,-0.9146 -0.201,-1.8238 -0.7892,-2.528 -0.5868,-0.7042 -1.4299,-1.1426 -2.3432,-1.2262 z m 0.9403,41.839 c -1.8724,0.3589 -3.1,2.1719 -2.7398,4.0443 2.5968,13.5021 7.0107,25.8697 12.721,37.1514 0.4128,0.8147 1.1345,1.4366 2.006,1.7226 0.8701,0.2874 1.8197,0.2145 2.6372,-0.1996 0.8189,-0.4115 1.4381,-1.1359 1.7241,-2.006 0.2873,-0.8701 0.2144,-1.8198 -0.1983,-2.6359 -5.4392,-10.7461 -9.6332,-22.4918 -12.1046,-35.3383 -0.3602,-1.8724 -2.1719,-3.1013 -4.0456,-2.7385 z m 21.7876,50.1193 c -0.8971,-0.1862 -1.8319,-0.014 -2.6009,0.4869 -0.7675,0.5005 -1.3058,1.2883 -1.4946,2.1827 -0.1889,0.8985 -0.014,1.8333 0.4869,2.6009 42.6256,65.3831 127.4221,88.7045 127.4221,88.7045 0.8849,0.2455 1.8306,0.1309 2.6251,-0.3211 0.8013,-0.4492 1.3854,-1.1992 1.6336,-2.0828 0.2456,-0.8836 0.1309,-1.8265 -0.321,-2.6278 -0.4492,-0.7973 -1.1979,-1.3855 -2.0829,-1.6296 0,0 -82.7541,-23.339 -123.4856,-85.8177 -0.5005,-0.7676 -1.2856,-1.3058 -2.1827,-1.496 z m 0,0"
     id="path28"
     style="stroke-width:0.345343" /><path
     fill-rule="nonzero"
     fill="#fdff96"
     fill-opacity="1"
     d="m 2412.7336,1975.7555 c -1.867,0.3872 -3.069,2.2137 -2.6859,4.0821 0,0 2.9381,14.2278 3.8784,34.3926 0.089,1.9034 1.7092,3.3779 3.6153,3.2875 0.9146,-0.041 1.7753,-0.4452 2.3931,-1.1251 0.6178,-0.6771 0.9429,-1.5715 0.9011,-2.4902 -0.9632,-20.6828 -4.0159,-35.4597 -4.0159,-35.4597 -0.1835,-0.8984 -0.719,-1.6849 -1.4853,-2.1894 -0.7662,-0.5045 -1.7024,-0.6839 -2.6008,-0.4978 z m 4.9454,52.7956 c -0.9146,-0.02 -1.8023,0.3225 -2.4687,0.9538 -0.6637,0.6354 -1.0468,1.5055 -1.067,2.4214 -0.259,10.8878 -1.2991,22.5674 -3.6437,34.0568 -0.8566,4.1791 -1.8778,8.33 -3.1013,12.4148 -0.5491,1.8278 0.491,3.7542 2.3176,4.3006 1.8265,0.549 3.7542,-0.487 4.2992,-2.3149 1.2883,-4.302 2.3621,-8.6538 3.2565,-13.0192 2.4484,-11.9966 3.5155,-24.066 3.7826,-35.2762 0.02,-0.9187 -0.3224,-1.8063 -0.9538,-2.47 -0.6354,-0.6624 -1.5028,-1.0455 -2.4214,-1.0671 z m -22.2949,78.525 c -0.9051,0.1484 -1.7091,0.653 -2.2406,1.399 -1.9966,2.7964 -4.1657,5.4661 -6.5238,7.9901 -1.3058,1.3921 -1.233,3.5788 0.1619,4.8833 0.6664,0.6259 1.5608,0.9605 2.4768,0.9295 0.9146,-0.031 1.782,-0.425 2.4066,-1.0981 2.5792,-2.756 4.9386,-5.6604 7.1038,-8.6929 1.1048,-1.5541 0.746,-3.7084 -0.8054,-4.8173 -0.7487,-0.5315 -1.6741,-0.746 -2.5793,-0.5936 z m 0,0"
     id="path29"
     style="stroke-width:0.345343" /><path
     fill-rule="nonzero"
     fill="#f8f6f2"
     fill-opacity="1"
     d="m 1973.0745,1912.0843 c -4.2709,1.3854 -8.1709,2.9152 -11.7268,4.5758 -0.8324,0.3872 -1.4758,1.0913 -1.7861,1.952 -0.3143,0.8633 -0.2725,1.813 0.1147,2.6413 0.3898,0.8324 1.0899,1.4745 1.9506,1.7888 0.8634,0.3116 1.8131,0.2698 2.6454,-0.1174 3.2834,-1.5324 6.9176,-2.9624 10.9336,-4.2641 0.8701,-0.2833 1.5959,-0.9012 2.0127,-1.72 0.4155,-0.8189 0.487,-1.7645 0.2037,-2.6386 -0.5868,-1.8131 -2.5348,-2.8046 -4.3478,-2.2178 z m -18.4232,9.1975 c -0.8944,-0.197 -1.8347,-0.031 -2.6077,0.4627 -17.0256,10.885 -23.3457,25.2235 -25.1061,36.6373 -1.7618,11.4139 0.8728,20.2295 0.8728,20.2295 0.5463,1.8279 2.47,2.864 4.2965,2.3176 1.8266,-0.545 2.8667,-2.4686 2.3203,-4.2965 0,0 -2.1854,-7.3102 -0.6596,-17.197 1.527,-9.8882 6.6033,-22.0305 21.9994,-31.8687 0.7729,-0.491 1.3193,-1.2707 1.5149,-2.1692 0.1969,-0.8943 0.031,-1.8306 -0.4627,-2.6035 -0.4937,-0.7703 -1.2735,-1.3153 -2.1678,-1.5122 z m 0,0"
     id="path30"
     style="stroke-width:0.345343" /><path
     fill-rule="nonzero"
     fill="#f8f6f2"
     fill-opacity="1"
     d="m 2057.1695,1952.9427 c -0.9119,0.1241 -1.7308,0.607 -2.2825,1.3395 -0.5531,0.7325 -0.7946,1.6512 -0.6664,2.5631 0,0 5.3285,39.4069 -23.2176,58.7906 -1.5783,1.0711 -1.9897,3.2187 -0.9186,4.797 0.5139,0.7595 1.3085,1.2815 2.2096,1.4542 0.9011,0.1727 1.8306,-0.022 2.5901,-0.5355 32.4312,-22.0224 26.184,-65.4668 26.184,-65.4668 -0.2658,-1.8886 -2.0127,-3.2079 -3.8986,-2.9421 z m -42.8751,70.3528 c -5.2827,1.5203 -11.2884,2.5657 -18.113,3.0042 -0.9146,0.059 -1.7672,0.4802 -2.3715,1.1682 -0.6044,0.6907 -0.9119,1.5918 -0.8539,2.5064 0.059,0.912 0.4802,1.7686 1.1682,2.3729 0.6907,0.6044 1.5878,0.9119 2.5037,0.8499 7.2725,-0.4668 13.7679,-1.5932 19.574,-3.2605 0.8835,-0.2523 1.6255,-0.8459 2.072,-1.6472 0.4411,-0.8053 0.549,-1.751 0.2968,-2.6319 -0.5288,-1.8305 -2.4457,-2.8908 -4.2763,-2.362 z m 0,0"
     id="path31"
     style="stroke-width:0.345343" /><path
     fill-rule="nonzero"
     fill="#ffffff"
     fill-opacity="1"
     d="m 2308.6964,2108.2295 -3.1945,-3.4466 -4.6661,0.576 2.2906,-4.105 -1.9898,-4.2588 4.6109,0.9119 3.4359,-3.2079 0.5598,4.6648 4.1131,2.2758 -4.2656,1.9763 z m 0,0"
     id="path32"
     style="stroke-width:0.345343" /><path
     fill-rule="nonzero"
     fill="#ffffff"
     fill-opacity="1"
     d="m 2227.9617,1911.5461 -3.1971,-3.4494 -4.6621,0.58 2.2892,-4.1063 -1.9925,-4.2588 4.6136,0.9092 3.4359,-3.2092 0.5598,4.6662 4.1131,2.2757 -4.2655,1.9749 z m 0,0"
     id="path33"
     style="stroke-width:0.345343" /><path
     fill-rule="nonzero"
     fill="#ffffff"
     fill-opacity="1"
     d="m 1762.1051,2032.3121 -3.1944,-3.4466 -4.6662,0.5773 2.2906,-4.1023 -1.9897,-4.2587 4.6135,0.9078 3.4332,-3.2079 0.5626,4.6662 4.1103,2.2757 -4.2655,1.975 z m 0,0"
     id="path34"
     style="stroke-width:0.345343" /><path
     fill-rule="nonzero"
     fill="#ffffff"
     fill-opacity="1"
     d="m 1630.5201,1924.0094 -3.1958,-3.4494 -4.6648,0.5801 2.2906,-4.1063 -1.9898,-4.2588 4.6109,0.9092 3.4345,-3.2092 0.5612,4.6661 4.1118,2.2758 -4.2642,1.9749 z m 0,0"
     id="path35"
     style="stroke-width:0.345343" /><path
     fill-rule="nonzero"
     fill="#ffffff"
     fill-opacity="1"
     d="m 1885.5962,2149.7287 -3.1985,-3.4467 -4.6648,0.5774 2.2933,-4.1064 -1.9898,-4.2547 4.6109,0.9079 3.4359,-3.2106 0.5598,4.6688 4.1131,2.2758 -4.2655,1.9749 z m 0,0"
     id="path36"
     style="stroke-width:0.345343" /><path
     fill-rule="nonzero"
     fill="#ffffff"
     fill-opacity="1"
     d="m 1860.289,1851.1286 -3.1944,-3.4467 -4.6648,0.5774 2.2892,-4.1036 -1.9897,-4.2575 4.6108,0.9079 3.4359,-3.2079 0.5599,4.6648 4.1131,2.2758 -4.2656,1.9762 z m 0,0"
     id="path37"
     style="stroke-width:0.345343" /><path
     fill-rule="nonzero"
     fill="#ffffff"
     fill-opacity="1"
     d="m 2474.6997,2057.6193 -3.1985,-3.4467 -4.6662,0.5774 2.2933,-4.1064 -1.9925,-4.2587 4.6136,0.9119 3.4332,-3.2079 0.5625,4.6648 4.1131,2.2757 -4.2682,1.9763 z m 0,0"
     id="path38"
     style="stroke-width:0.345343" /><path
     fill-rule="nonzero"
     fill="#ffffff"
     fill-opacity="1"
     d="m 2306.6729,1843.0333 -3.1985,-3.4467 -4.6621,0.5733 2.2892,-4.1023 -1.9884,-4.2574 4.6109,0.9079 3.4318,-3.2079 0.5625,4.6648 4.1104,2.2758 -4.2614,1.9762 z m 0,0"
     id="path39"
     style="stroke-width:0.345343" /><path
     fill-rule="nonzero"
     fill="#ffffff"
     fill-opacity="1"
     d="m 2056.6582,1836.9588 -3.1944,-3.4467 -4.6662,0.5774 2.2906,-4.1064 -1.9898,-4.2574 4.6109,0.9106 3.4359,-3.208 0.5598,4.6662 4.1131,2.2758 -4.2655,1.9749 z m 0,0"
     id="path40"
     style="stroke-width:0.345343" /></svg>
