<?xml version="1.0" encoding="UTF-8" standalone="no"?>
<svg
   width="1523px"
   height="1259px"
   viewBox="0 0 1523 1259"
   version="1.1"
   id="svg10"
   sodipodi:docname="ADS.svg"
   inkscape:version="1.3.2 (091e20ef0f, 2023-11-25, custom)"
   xmlns:inkscape="http://www.inkscape.org/namespaces/inkscape"
   xmlns:sodipodi="http://sodipodi.sourceforge.net/DTD/sodipodi-0.dtd"
   xmlns:xlink="http://www.w3.org/1999/xlink"
   xmlns="http://www.w3.org/2000/svg"
   xmlns:svg="http://www.w3.org/2000/svg"
   xmlns:sketch="http://www.bohemiancoding.com/sketch/ns">
  <sodipodi:namedview
     id="namedview10"
     pagecolor="#ffffff"
     bordercolor="#666666"
     borderopacity="1.0"
     inkscape:showpageshadow="2"
     inkscape:pageopacity="0.0"
     inkscape:pagecheckerboard="0"
     inkscape:deskcolor="#d1d1d1"
     inkscape:zoom="0.65210485"
     inkscape:cx="761.38063"
     inkscape:cy="629.5"
     inkscape:window-width="1920"
     inkscape:window-height="1027"
     inkscape:window-x="0"
     inkscape:window-y="26"
     inkscape:window-maximized="1"
     inkscape:current-layer="svg10" />
  <!-- Generator: Sketch 3.5.1 (25234) - http://www.bohemiancoding.com/sketch -->
  <title
     id="title1">bbb_logo</title>
  <desc
     id="desc1">Created with Sketch.</desc>
  <defs
     id="defs6">
    <linearGradient
       x1="100%"
       y1="80.4645116%"
       x2="0%"
       y2="21.0140628%"
       id="linearGradient-1">
      <stop
         stop-color="#409FFF"
         offset="0%"
         id="stop1" />
      <stop
         stop-color="#2157CF"
         offset="100%"
         id="stop2" />
    </linearGradient>
    <linearGradient
       x1="857"
       y1="753.41543"
       x2="337"
       y2="444.27313"
       id="linearGradient-2"
       gradientUnits="userSpaceOnUse">
      <stop
         stop-color="#001CFF"
         stop-opacity="0"
         offset="0%"
         id="stop3" />
      <stop
         stop-color="#5AEAFF"
         stop-opacity="0.201341712"
         offset="100%"
         id="stop4" />
    </linearGradient>
    <radialGradient
       cx="782.09375"
       cy="355.4375"
       fx="782.09375"
       fy="355.4375"
       r="280.20672"
       id="radialGradient-3"
       gradientUnits="userSpaceOnUse">
      <stop
         stop-color="#FFFFFF"
         offset="0%"
         id="stop5" />
      <stop
         stop-color="#FFFFFF"
         offset="100%"
         id="stop6" />
    </radialGradient>
    <linearGradient
       inkscape:collect="always"
       xlink:href="#linearGradient-1"
       id="linearGradient10"
       x1="897.05835"
       y1="777.83399"
       x2="297"
       y2="421.09664"
       gradientUnits="userSpaceOnUse" />
    <linearGradient
       inkscape:collect="always"
       xlink:href="#linearGradient-1"
       id="linearGradient11"
       x1="897.05835"
       y1="777.83399"
       x2="297"
       y2="421.09664"
       gradientUnits="userSpaceOnUse" />
  </defs>
  <g
     id="Page-1"
     stroke="none"
     stroke-width="1"
     fill="none"
     fill-rule="evenodd"
     sketch:type="MSPage"
     transform="matrix(0.01839262,0,0,0.01828184,0.40419299,0.0050482)">
    <g
       id="bbb_logo"
       sketch:type="MSLayerGroup"
       transform="translate(-290,-225)">
      <g
         id="background"
         transform="rotate(58,697.52071,1258.85)"
         sketch:type="MSShapeGroup">
        <circle
           id="Oval-12"
           fill="#343434"
           cx="612"
           cy="612"
           r="612" />
        <circle
           id="circle6"
           fill="#343434"
           cx="612"
           cy="612"
           r="612" />
        <path
           d="M 97.467503,502.2456 C 147.94826,264.42668 359.13724,86 612,86 c 290.50178,0 526,235.49822 526,526 0,229.52163 -147.00675,424.708 -352,496.5388 v -29.7121 C 975.26247,1008.2607 1110.0566,825.88592 1110.0566,612.02832 1110.0566,336.97487 887.08177,114 612.02832,114 371.74278,114 171.20203,284.16766 124.34293,510.5661 c -8.67845,-3.38311 -17.65352,-6.1732 -26.875427,-8.3205 z M 151.97803,867.25797 C 213.76106,978.36464 314.62818,1064.7496 436,1107.8335 v -29.7788 C 324.45247,1035.899 232.00658,954.84294 175.21128,851.43557 c -7.34247,5.79958 -15.10456,11.09138 -23.23325,15.8224 z"
           id="Oval-13"
           fill="#a5a5a5" />
      </g>
      <g
         id="magnifying-glass"
         transform="rotate(58,667.67618,1265.8905)"
         sketch:type="MSShapeGroup">
        <circle
           id="Oval-10"
           fill="#9b9b9b"
           transform="rotate(-49,592,592)"
           cx="592"
           cy="592"
           r="419" />
        <circle
           id="Oval-9"
           fill="url(#linearGradient-1)"
           transform="rotate(-49,597.02919,595.02919)"
           cx="597.02917"
           cy="595.02917"
           r="300.02917"
           style="fill:url(#linearGradient10)" />
        <circle
           id="circle7"
           fill="url(#linearGradient-1)"
           transform="rotate(-49,597.02919,595.02919)"
           cx="597.02917"
           cy="595.02917"
           r="300.02917"
           style="fill:url(#linearGradient11)" />
        <circle
           id="circle8"
           fill="url(#linearGradient-2)"
           transform="rotate(-49,597,595)"
           cx="597"
           cy="595"
           r="260"
           style="fill:url(#linearGradient-2)" />
        <path
           d="m 421.26958,1026.9592 h 350 v 432.7818 c 0,96.6543 -78.35615,175.008 -175,175.008 v 0 c -96.64983,0 -175,-78.3493 -175,-175.008 z"
           id="Rectangle-9"
           fill="#343434" />
        <g
           id="Group-5"
           transform="rotate(-58,1388.8388,456.58259)">
          <g
             id="Group-6"
             transform="rotate(57,229.27238,424.00603)"
             fill="#9b9b9b">
            <rect
               id="Rectangle-7"
               transform="rotate(91,74,68.437669)"
               x="7"
               y="32.937588"
               width="134"
               height="71.00016" />
            <path
               d="M 0,286.83055 C 0,245.95658 0,179.69556 0,138.81475 v 15.82598 C 0,113.77171 33.121943,80.640822 74,80.640822 v 0 c 40.86907,0 74,33.132668 74,74.000158 V 97.273805 c 0,40.869215 0,107.138995 0,148.003565 v 228.41639 c 0,40.8663 -33.12194,73.99499 -74,73.99499 v 0 c -40.869071,0 -74,-33.13183 -74,-74.00773 z"
               id="path8" />
          </g>
          <g
             id="g9"
             transform="rotate(53,136.42952,436.10599)"
             fill="#878787">
            <path
               d="M 109.43901,4.7333754 C 104.61186,3.7433179 99.613347,3.2233212 94.493384,3.2233212 c -40.878058,0 -74,33.1308888 -74,73.9999108 V 61.397247 c 0,40.880813 0,107.141833 0,148.015803 v 186.85046 c 0,40.87591 33.130928,74.00774 74,74.00774 5.802696,0 11.449096,-0.66755 16.866666,-1.93002 -33.7047,-6.91274 -59.054621,-36.74258 -59.054621,-72.49775 V 208.99301 c 0,-40.87397 0,-107.13498 0,-148.015799 v 15.825986 c 0,-35.0677 24.386072,-64.438189 57.133581,-72.0698216 z"
               id="path9"
               transform="rotate(-175,65.926716,236.74728)" />
          </g>
          <path
             d="m 452.87237,63.984392 h 35 v 85.379688 l -35,-9.44745 z"
             id="path10"
             fill="#878787"
             transform="rotate(58,470.37237,106.67424)" />
        </g>
      </g>
      <circle
         id="Oval-16"
         fill="#343434"
         sketch:type="MSShapeGroup"
         cx="824.5"
         cy="432.5"
         r="207.49486" />
      <path
         d="m 829.10336,570.20672 c 77.37695,0 140.10336,-62.72641 140.10336,-140.10336 C 969.20672,352.72641 906.48031,290 829.10336,290 751.72641,290 689,352.72641 689,430.10336 c 0,77.37695 62.72641,140.10336 140.10336,140.10336 z"
         id="Oval-20"
         fill="url(#radialGradient-3)"
         sketch:type="MSShapeGroup"
         style="fill:url(#radialGradient-3)" />
      <text
         id="a"
         sketch:type="MSTextLayer"
         font-family="Helvetica"
         font-size="700px"
         font-weight="bold"
         fill="#ffffff"><tspan
           x="1007"
           y="1030"
           id="tspan10">a</tspan></text>
      <path
         d="m 1180.4369,956.80437 c 0,-118.40103 -67.1714,-300.59185 -67.1714,-300.59185 0,0 139.7974,-4.35277 225.1579,65.44151 84.351,68.96902 114.4083,183.33507 109.6555,252.46312 -4.7529,69.12805 -47.4196,167.53495 -109.6555,216.06935 -96.17,74.9978 -215.3145,63.8823 -215.3145,63.8823 0,0 57.328,-178.8634 57.328,-297.26443 z"
         id="Rectangle-10"
         fill-opacity="0.09"
         fill="#000000"
         sketch:type="MSShapeGroup"
         transform="rotate(52,1280.9125,955.40446)" />
    </g>
  </g>
</svg>
