<?xml version="1.0" standalone="no"?>
<!DOCTYPE svg PUBLIC "-//W3C//DTD SVG 20010904//EN"
 "http://www.w3.org/TR/2001/REC-SVG-20010904/DTD/svg10.dtd">
<svg version="1.0" xmlns="http://www.w3.org/2000/svg"
 width="893.000000pt" height="430.000000pt" viewBox="0 0 893.000000 430.000000"
 preserveAspectRatio="xMidYMid meet">
<metadata>
Created by potrace 1.16, written by Peter Selinger 2001-2019
</metadata>
<g transform="translate(0.000000,430.000000) scale(0.100000,-0.100000)"
fill="#000000" stroke="none">
<path d="M4107 4071 c-45 -50 -54 -68 -68 -130 -20 -93 29 -224 101 -270 23
-15 22 -13 -6 24 -43 55 -54 94 -54 189 0 101 13 147 52 191 16 19 26 35 20
35 -5 0 -26 -18 -45 -39z"/>
<path d="M5177 4088 c36 -40 53 -85 59 -160 9 -97 -9 -179 -47 -222 -43 -49
-35 -56 11 -11 72 70 98 188 64 287 -16 47 -77 128 -97 128 -6 0 -1 -10 10
-22z"/>
<path d="M3660 4080 c0 -5 7 -10 15 -10 20 0 19 -13 -10 -122 -31 -114 -31
-130 -2 -163 28 -34 89 -43 140 -22 43 19 61 53 107 205 21 69 35 102 45 102
8 0 15 5 15 10 0 6 -24 10 -52 10 -52 0 -53 -1 -31 -18 l21 -17 -23 -90 c-32
-119 -53 -163 -86 -181 -36 -18 -59 -18 -88 2 -21 15 -23 22 -18 68 9 76 55
216 72 216 8 0 17 5 20 10 4 6 -18 10 -59 10 -37 0 -66 -4 -66 -10z"/>
<path d="M4302 4074 c-55 -38 -48 -89 24 -166 49 -53 56 -86 24 -118 -11 -11
-31 -20 -45 -20 -14 0 -34 9 -45 20 -11 11 -20 31 -20 45 0 14 -4 25 -10 25
-5 0 -10 -8 -10 -17 0 -10 -3 -36 -7 -58 -6 -35 -4 -38 9 -28 11 10 23 10 47
2 73 -26 141 18 141 92 0 32 -8 48 -50 94 -69 76 -66 125 7 125 35 0 53 -21
53 -61 0 -35 17 -10 24 36 l7 40 -63 3 c-45 1 -70 -2 -86 -14z"/>
<path d="M4820 4084 c0 -4 7 -12 15 -18 9 -7 22 -58 35 -146 12 -74 25 -144
29 -154 6 -16 27 12 105 142 54 89 102 162 107 162 5 0 9 5 9 10 0 6 -20 10
-45 10 -25 0 -45 -4 -45 -10 0 -5 7 -10 15 -10 8 0 15 -6 15 -13 0 -9 -112
-212 -125 -225 -2 -3 -35 205 -35 226 0 6 7 12 15 12 8 0 15 5 15 10 0 6 -25
10 -55 10 -30 0 -55 -3 -55 -6z"/>
<path d="M4507 3803 c-4 -3 -7 -15 -7 -25 0 -13 7 -18 25 -18 30 0 32 -13 5
-40 -29 -29 -25 -38 5 -10 31 29 39 54 25 80 -10 19 -40 27 -53 13z"/>
<path d="M3145 3226 c-1159 -595 -1165 -598 -1155 -570 6 14 10 54 10 90 0 50
-3 64 -15 64 -12 0 -15 -13 -15 -60 0 -60 -10 -94 -42 -141 -21 -32 -16 -39
31 -39 40 0 128 -38 150 -63 14 -18 41 -23 41 -9 0 16 -66 71 -107 89 l-42 18
817 417 c726 371 874 452 810 447 -7 -1 -224 -110 -483 -243z"/>
<path d="M5295 3459 c-4 -6 -5 -12 -4 -14 2 -1 371 -191 819 -420 448 -229
817 -419 818 -420 2 -2 -18 -13 -46 -25 -56 -24 -110 -74 -92 -85 6 -4 26 5
45 20 48 36 97 55 145 55 22 0 40 4 40 10 0 5 -11 25 -24 45 -27 40 -42 109
-33 155 7 34 -5 47 -23 25 -13 -16 -9 -122 5 -159 6 -13 -25 -1 -116 47 -218
114 -1517 777 -1522 777 -3 0 -9 -5 -12 -11z"/>
<path d="M6745 3433 c7 -16 18 -70 25 -120 7 -51 16 -93 21 -93 4 0 31 39 60
88 29 48 63 102 76 120 l24 32 -38 -1 c-21 0 -32 -3 -25 -6 20 -8 14 -31 -32
-109 l-44 -75 -5 33 c-18 100 -20 140 -6 149 9 6 0 9 -28 9 l-41 0 13 -27z"/>
<path d="M6370 3365 c0 -34 -1 -35 -40 -35 -29 0 -40 -4 -40 -15 0 -11 11 -15
40 -15 l40 0 0 -40 c0 -29 4 -40 15 -40 11 0 15 11 15 40 l0 40 41 0 c52 0 48
24 -4 28 -35 3 -37 5 -37 38 0 24 -5 34 -15 34 -10 0 -15 -11 -15 -35z"/>
<path d="M2239 3364 c-12 -33 -5 -43 11 -15 7 14 21 21 40 21 17 0 30 -3 30
-7 -1 -32 -53 -191 -67 -200 -14 -11 -8 -13 38 -12 30 1 46 3 37 6 -20 5 -23
26 -9 69 5 16 17 55 26 87 14 50 19 57 41 57 16 0 28 -8 34 -22 6 -16 9 -18 9
-6 1 9 4 23 7 32 5 14 -6 16 -90 16 -95 0 -97 0 -107 -26z"/>
<path d="M2527 3372 c-26 -29 -20 -61 19 -104 27 -31 34 -46 32 -71 -2 -27 -8
-33 -31 -35 -33 -4 -57 13 -57 40 0 10 -4 16 -10 13 -5 -3 -10 -20 -10 -37 0
-17 3 -29 6 -26 3 4 20 2 37 -3 42 -12 82 5 97 41 14 33 4 58 -42 106 -32 34
-34 60 -5 78 22 14 49 -2 57 -35 5 -21 7 -22 13 -6 16 42 9 52 -41 55 -37 2
-52 -2 -65 -16z"/>
<path d="M6552 3314 c-7 -37 -21 -91 -31 -120 l-18 -54 27 0 c24 0 27 3 22 25
-2 13 -1 33 3 42 4 10 9 31 11 48 7 49 37 100 62 103 13 2 24 -3 28 -12 9 -24
-15 -84 -43 -106 -15 -12 -20 -20 -12 -20 38 0 89 65 89 113 0 46 -46 62 -83
30 -19 -17 -20 -17 -14 0 5 12 1 17 -11 17 -14 0 -20 -15 -30 -66z"/>
<path d="M2010 3240 c0 -6 38 -10 95 -10 57 0 95 4 95 10 0 6 -38 10 -95 10
-57 0 -95 -4 -95 -10z"/>
<path d="M697 2341 c-45 -50 -54 -68 -68 -130 -20 -93 29 -224 101 -270 23
-15 22 -13 -6 24 -43 55 -54 94 -54 189 0 101 13 147 52 191 16 19 26 35 20
35 -5 0 -26 -18 -45 -39z"/>
<path d="M1797 2358 c36 -40 53 -85 59 -160 9 -97 -9 -179 -47 -222 -43 -49
-35 -56 11 -11 72 70 98 188 64 287 -16 47 -77 128 -97 128 -6 0 -1 -10 10
-22z"/>
<path d="M7507 2341 c-45 -50 -54 -68 -68 -130 -20 -93 29 -224 101 -270 23
-15 22 -13 -6 24 -43 55 -54 94 -54 189 0 101 13 147 52 191 16 19 26 35 20
35 -5 0 -26 -18 -45 -39z"/>
<path d="M8547 2358 c36 -40 53 -85 59 -160 9 -97 -9 -179 -47 -222 -43 -49
-35 -56 11 -11 72 70 98 188 64 287 -16 47 -77 128 -97 128 -6 0 -1 -10 10
-22z"/>
<path d="M320 2350 c0 -5 7 -10 15 -10 8 0 15 -7 15 -16 0 -37 -72 -270 -87
-281 -14 -11 -6 -13 48 -12 51 0 59 2 40 10 -18 7 -22 14 -17 32 4 12 12 43
18 70 11 46 12 47 49 47 34 0 38 -3 41 -27 l4 -28 13 30 c7 17 15 43 18 59 l6
29 -21 -21 c-14 -14 -35 -22 -56 -22 l-34 0 17 63 c20 69 26 73 97 62 38 -5
44 -9 44 -31 0 -13 5 -24 10 -24 6 0 10 8 10 18 0 9 3 27 6 40 6 22 6 22 -115
22 -74 0 -121 -4 -121 -10z"/>
<path d="M816 2343 c-2 -10 -7 -29 -11 -43 l-7 -25 26 28 c15 15 32 27 39 27
7 0 23 3 36 7 23 6 24 4 17 -27 -3 -19 -20 -85 -37 -146 -28 -100 -34 -114
-58 -123 -20 -7 -9 -9 54 -9 44 0 71 2 60 5 -11 3 -24 9 -28 13 -9 8 59 267
74 284 4 4 21 5 38 1 24 -5 31 -12 31 -31 0 -35 16 -30 24 7 3 17 6 35 6 40 0
5 -58 9 -129 9 -115 0 -130 -2 -135 -17z"/>
<path d="M1450 2354 c0 -4 7 -12 15 -18 9 -7 22 -58 35 -146 12 -74 25 -144
29 -154 6 -16 27 12 105 142 54 89 102 162 107 162 5 0 9 5 9 10 0 6 -20 10
-45 10 -25 0 -45 -4 -45 -10 0 -5 7 -10 15 -10 8 0 15 -6 15 -13 0 -9 -112
-212 -125 -225 -2 -3 -35 205 -35 226 0 6 7 12 15 12 8 0 15 5 15 10 0 6 -25
10 -55 10 -30 0 -55 -3 -55 -6z"/>
<path d="M7070 2350 c0 -5 7 -10 15 -10 22 0 19 -22 -20 -161 -20 -73 -42
-129 -52 -136 -14 -11 -6 -13 48 -12 49 0 59 2 41 9 -24 10 -24 12 2 105 l12
40 71 3 72 3 -19 -67 c-11 -37 -21 -68 -22 -69 -2 -1 -12 -7 -23 -13 -16 -9
-7 -11 50 -11 53 0 64 2 47 10 -16 6 -22 15 -18 26 3 10 17 61 31 113 39 144
45 160 61 160 8 0 14 5 14 10 0 6 -27 10 -60 10 -33 0 -60 -4 -60 -10 0 -5 7
-10 16 -10 14 0 15 -7 10 -39 -13 -86 -18 -91 -91 -91 -73 0 -73 -1 -50 78 9
31 22 52 30 52 8 0 17 5 20 10 4 6 -18 10 -59 10 -37 0 -66 -4 -66 -10z"/>
<path d="M7702 2344 c-55 -38 -48 -89 24 -166 49 -53 56 -86 24 -118 -40 -40
-110 -11 -110 45 0 14 -4 25 -10 25 -5 0 -10 -8 -10 -17 0 -10 -3 -36 -7 -58
-6 -35 -4 -38 9 -28 11 10 23 10 47 2 73 -26 141 18 141 92 0 32 -8 48 -50 94
-69 76 -66 125 7 125 35 0 53 -21 53 -61 0 -35 17 -10 24 36 l7 40 -63 3 c-45
1 -70 -2 -86 -14z"/>
<path d="M8290 2240 c-17 -5 -19 -8 -7 -9 9 -1 17 -6 17 -11 0 -30 -71 -275
-82 -282 -8 -4 8 -7 37 -7 28 1 42 3 32 6 -13 3 -16 11 -11 31 13 59 15 63 33
57 40 -12 116 39 147 97 8 15 14 43 14 62 0 64 -52 86 -105 44 l-28 -22 5 22
c7 24 -6 27 -52 12z m128 -22 c40 -40 -29 -178 -89 -178 -34 0 -36 12 -13 89
23 79 71 120 102 89z"/>
<path d="M1127 2073 c-4 -3 -7 -15 -7 -25 0 -13 7 -18 25 -18 30 0 32 -13 5
-40 -29 -29 -25 -38 5 -10 31 29 39 54 25 80 -10 19 -40 27 -53 13z"/>
<path d="M7907 2073 c-4 -3 -7 -15 -7 -25 0 -13 7 -18 25 -18 30 0 32 -13 5
-40 -29 -29 -25 -38 5 -10 31 29 39 54 25 80 -10 19 -40 27 -53 13z"/>
<path d="M1915 1730 c-4 -6 -5 -13 -4 -14 2 -2 371 -191 819 -421 448 -229
819 -421 824 -426 6 -6 3 -9 -7 -9 -46 0 -147 -76 -132 -100 4 -7 21 1 46 21
46 36 100 58 146 59 33 0 51 14 33 25 -27 17 -50 86 -50 150 0 60 -9 80 -25
54 -11 -17 -8 -125 4 -148 7 -11 10 -21 7 -21 -3 0 -368 186 -813 414 -444
228 -815 418 -824 421 -10 4 -20 1 -24 -5z"/>
<path d="M6500 1484 c-1082 -557 -1143 -587 -1136 -568 23 59 18 164 -7 164
-10 0 -13 -19 -13 -67 1 -57 -4 -76 -26 -115 -16 -26 -28 -49 -28 -51 0 -2 22
-7 49 -10 56 -7 116 -34 145 -66 24 -26 36 -27 36 -2 0 22 -59 70 -108 86 -25
9 -31 15 -21 21 8 5 372 192 809 417 437 224 799 412 805 418 6 6 6 12 0 18
-6 6 -202 -90 -505 -245z"/>
<path d="M2445 1133 c7 -16 18 -70 25 -120 7 -51 16 -93 21 -93 4 0 31 39 60
88 29 48 63 102 76 120 l24 32 -38 -1 c-21 0 -32 -3 -25 -6 20 -8 14 -31 -32
-109 l-44 -75 -5 33 c-18 100 -20 140 -6 149 9 6 0 9 -28 9 l-41 0 13 -27z"/>
<path d="M6519 1124 c-12 -33 -5 -43 11 -15 7 14 21 21 40 21 17 0 30 -3 30
-7 -1 -32 -53 -191 -67 -200 -14 -11 -8 -13 38 -12 30 1 46 3 37 6 -20 5 -23
26 -9 69 5 16 17 55 26 87 14 50 19 57 41 57 16 0 28 -8 34 -22 6 -16 9 -18 9
-6 1 9 4 23 7 32 5 14 -6 16 -90 16 -95 0 -97 0 -107 -26z"/>
<path d="M6807 1132 c-26 -29 -20 -61 19 -104 27 -31 34 -46 32 -71 -2 -27 -8
-33 -31 -35 -33 -4 -57 13 -57 40 0 10 -4 16 -10 13 -5 -3 -10 -20 -10 -37 0
-17 3 -29 6 -26 3 4 20 2 37 -3 42 -12 82 5 97 41 14 33 4 58 -42 106 -32 34
-34 60 -5 78 22 14 49 -2 57 -35 5 -21 7 -22 13 -6 16 42 9 52 -41 55 -37 2
-52 -2 -65 -16z"/>
<path d="M2070 1065 c0 -34 -1 -35 -40 -35 -29 0 -40 -4 -40 -15 0 -11 11 -15
40 -15 l40 0 0 -40 c0 -29 4 -40 15 -40 11 0 15 11 15 40 l0 40 41 0 c52 0 48
24 -4 28 -35 3 -37 5 -37 38 0 24 -5 34 -15 34 -10 0 -15 -11 -15 -35z"/>
<path d="M2242 1014 c-7 -37 -21 -91 -31 -120 l-18 -54 27 0 c24 0 27 3 22 25
-2 13 -1 33 3 42 4 10 9 31 11 48 7 49 37 100 62 103 13 2 24 -3 28 -12 9 -24
-15 -84 -43 -106 -15 -12 -20 -20 -12 -20 38 0 89 65 89 113 0 46 -46 62 -83
30 -19 -17 -20 -17 -14 0 5 12 1 17 -11 17 -14 0 -20 -15 -30 -66z"/>
<path d="M6300 1000 c0 -6 38 -10 95 -10 57 0 95 4 95 10 0 6 -38 10 -95 10
-57 0 -95 -4 -95 -10z"/>
<path d="M4107 601 c-45 -50 -54 -68 -68 -130 -20 -93 29 -224 101 -270 23
-15 22 -13 -6 24 -43 55 -54 94 -54 189 0 101 13 147 52 191 16 19 26 35 20
35 -5 0 -26 -18 -45 -39z"/>
<path d="M5187 618 c36 -40 53 -85 59 -160 9 -97 -9 -179 -47 -222 -43 -49
-35 -56 11 -11 72 70 98 188 64 287 -16 47 -77 128 -97 128 -6 0 -1 -10 10
-22z"/>
<path d="M3755 606 c-41 -18 -95 -73 -112 -115 -21 -49 -19 -119 4 -150 42
-57 126 -76 202 -45 36 14 40 20 53 72 10 42 20 60 38 69 22 11 17 13 -45 12
-38 -1 -62 -3 -52 -6 19 -5 22 -31 7 -85 -18 -62 -85 -79 -137 -34 -25 22 -28
31 -28 83 1 109 64 193 145 193 44 0 76 -21 85 -57 7 -26 8 -26 15 -8 4 11 10
34 14 50 l6 30 -82 2 c-52 2 -94 -2 -113 -11z"/>
<path d="M4226 603 c-2 -10 -7 -29 -11 -43 l-7 -25 26 28 c15 15 32 27 39 27
7 0 23 3 36 7 23 6 24 4 17 -27 -3 -19 -20 -85 -37 -146 -28 -100 -34 -114
-58 -123 -20 -7 -9 -9 54 -9 44 0 71 2 60 5 -11 3 -24 9 -28 13 -9 8 59 267
74 284 4 4 21 5 38 1 24 -5 31 -12 31 -31 0 -35 16 -30 24 7 3 17 6 35 6 40 0
5 -58 9 -129 9 -115 0 -130 -2 -135 -17z"/>
<path d="M4930 500 c-17 -5 -19 -8 -7 -9 9 -1 17 -6 17 -11 0 -30 -71 -275
-82 -282 -8 -4 8 -7 37 -7 28 1 42 3 32 6 -13 3 -16 11 -11 31 13 59 15 63 33
57 40 -12 116 39 147 97 8 15 14 43 14 62 0 64 -52 86 -105 44 l-28 -22 5 22
c7 24 -6 27 -52 12z m128 -22 c40 -40 -29 -178 -89 -178 -34 0 -36 12 -13 89
23 79 71 120 102 89z"/>
<path d="M4547 333 c-4 -3 -7 -15 -7 -25 0 -13 7 -18 25 -18 30 0 32 -13 5
-40 -29 -29 -25 -38 5 -10 31 29 39 54 25 80 -10 19 -40 27 -53 13z"/>
</g>
</svg>
