<?xml version="1.0" standalone="no"?>
<!DOCTYPE svg PUBLIC "-//W3C//DTD SVG 20010904//EN"
 "http://www.w3.org/TR/2001/REC-SVG-20010904/DTD/svg10.dtd">
<svg version="1.0" xmlns="http://www.w3.org/2000/svg"
 width="510.000000pt" height="405.000000pt" viewBox="0 0 510.000000 405.000000"
 preserveAspectRatio="xMidYMid meet">
<metadata>
Created by potrace 1.16, written by Peter Selinger 2001-2019
</metadata>
<g transform="translate(0.000000,405.000000) scale(0.100000,-0.100000)"
fill="#000000" stroke="none">
<path d="M672 3834 c-55 -38 -48 -89 24 -166 49 -53 56 -86 24 -118 -40 -40
-110 -11 -110 45 0 14 -4 25 -10 25 -5 0 -10 -8 -10 -17 0 -10 -3 -36 -7 -58
-6 -35 -4 -38 9 -28 11 10 23 10 47 2 73 -26 141 18 141 92 0 32 -8 48 -50 94
-69 76 -66 125 7 125 35 0 53 -21 53 -61 0 -35 17 -10 24 36 l7 40 -63 3 c-45
1 -70 -2 -86 -14z"/>
<path d="M2550 3840 c0 -5 7 -10 15 -10 20 0 19 -13 -10 -122 -31 -114 -31
-130 -2 -163 28 -34 89 -43 140 -22 43 19 61 53 107 205 21 69 35 102 45 102
8 0 15 5 15 10 0 6 -24 10 -52 10 -52 0 -53 -1 -31 -18 l21 -17 -23 -90 c-32
-119 -53 -163 -86 -181 -36 -18 -59 -18 -88 2 -21 15 -23 22 -18 68 9 76 55
216 72 216 8 0 17 5 20 10 4 6 -18 10 -59 10 -37 0 -66 -4 -66 -10z"/>
<path d="M4560 3844 c0 -4 7 -12 15 -18 9 -7 22 -58 35 -146 12 -74 25 -144
29 -154 6 -16 27 12 105 142 54 89 102 162 107 162 5 0 9 5 9 10 0 6 -20 10
-45 10 -25 0 -45 -4 -45 -10 0 -5 7 -10 15 -10 8 0 15 -6 15 -13 0 -9 -112
-212 -125 -225 -2 -3 -35 205 -35 226 0 6 7 12 15 12 8 0 15 5 15 10 0 6 -25
10 -55 10 -30 0 -55 -3 -55 -6z"/>
<path d="M270 3645 c0 -13 18 -15 127 -13 90 2 128 7 131 16 3 9 -27 12 -127
12 -111 0 -131 -2 -131 -15z"/>
<path d="M4060 3376 c0 -19 96 -66 133 -66 16 0 27 -4 25 -9 -3 -11 -1590
-1241 -1599 -1241 -4 0 -373 283 -820 630 -448 346 -818 629 -822 627 -5 -1
-9 -7 -10 -12 -1 -6 362 -291 805 -635 444 -344 809 -628 812 -631 4 -4 -1457
-1144 -1673 -1306 -12 -9 -13 -15 -5 -23 9 -9 217 147 854 640 463 359 848
653 856 654 8 0 374 -278 815 -619 l800 -619 -50 -17 c-56 -19 -111 -49 -111
-61 0 -18 20 -15 66 8 39 20 62 25 111 23 35 -1 66 0 69 3 3 4 -2 21 -11 39
-16 29 -17 116 -3 179 2 8 -1 17 -7 20 -17 9 -39 -53 -39 -112 -1 -47 -3 -55
-16 -47 -40 23 -1583 1225 -1583 1234 -1 10 1571 1234 1586 1234 4 1 5 -10 1
-24 -8 -33 3 -108 21 -131 21 -30 27 -12 16 56 -8 50 -7 70 5 104 26 71 27 71
-46 68 -54 -3 -74 1 -115 22 -58 30 -65 31 -65 12z"/>
<path d="M420 2230 c0 -5 7 -10 15 -10 22 0 19 -22 -20 -161 -20 -73 -42 -129
-52 -136 -14 -11 -6 -13 48 -12 49 0 59 2 41 9 -24 10 -24 12 2 105 l12 40 71
3 72 3 -19 -67 c-11 -37 -21 -68 -22 -69 -2 -1 -12 -7 -23 -13 -16 -9 -7 -11
50 -11 53 0 64 2 47 10 -16 6 -22 15 -18 26 3 10 17 61 31 113 39 144 45 160
61 160 8 0 14 5 14 10 0 6 -27 10 -60 10 -33 0 -60 -4 -60 -10 0 -5 7 -10 16
-10 14 0 15 -7 10 -39 -13 -86 -18 -91 -91 -91 -73 0 -73 -1 -50 78 9 31 22
52 30 52 8 0 17 5 20 10 4 6 -18 10 -59 10 -37 0 -66 -4 -66 -10z"/>
<path d="M4620 2230 c0 -5 7 -10 15 -10 8 0 15 -7 15 -16 0 -37 -72 -270 -87
-281 -14 -11 -6 -13 48 -12 51 0 59 2 40 10 -18 7 -22 14 -17 32 4 12 12 43
18 70 11 46 12 47 49 47 34 0 38 -3 41 -27 l4 -28 13 30 c7 17 15 43 18 59 l6
29 -21 -21 c-14 -14 -35 -22 -56 -22 l-34 0 17 63 c20 69 26 73 97 62 38 -5
44 -9 44 -31 0 -13 5 -24 10 -24 6 0 10 8 10 18 0 9 3 27 6 40 6 22 6 22 -115
22 -74 0 -121 -4 -121 -10z"/>
<path d="M2645 606 c-41 -18 -95 -73 -112 -115 -21 -49 -19 -119 4 -150 42
-57 126 -76 202 -45 36 14 40 20 53 72 10 42 20 60 38 69 22 11 17 13 -45 12
-38 -1 -62 -3 -52 -6 19 -5 22 -31 7 -85 -18 -62 -85 -79 -137 -34 -25 22 -28
31 -28 83 1 109 64 193 145 193 44 0 76 -21 85 -57 7 -26 8 -26 15 -8 4 11 10
34 14 50 l6 30 -82 2 c-52 2 -94 -2 -113 -11z"/>
<path d="M4576 603 c-2 -10 -7 -29 -11 -43 l-7 -25 26 28 c15 15 32 27 39 27
7 0 23 3 36 7 23 6 24 4 17 -27 -3 -19 -20 -85 -37 -146 -28 -100 -34 -114
-58 -123 -20 -7 -9 -9 54 -9 44 0 71 2 60 5 -11 3 -24 9 -28 13 -9 8 59 267
74 284 4 4 21 5 38 1 24 -5 31 -12 31 -31 0 -35 16 -30 24 7 3 17 6 35 6 40 0
5 -58 9 -129 9 -115 0 -130 -2 -135 -17z"/>
<path d="M630 500 c-17 -5 -19 -8 -7 -9 9 -1 17 -6 17 -11 0 -30 -71 -275 -82
-282 -8 -4 8 -7 37 -7 28 1 42 3 32 6 -13 3 -16 11 -11 31 13 59 15 63 33 57
40 -12 116 39 147 97 8 15 14 43 14 62 0 64 -52 86 -105 44 l-28 -22 5 22 c7
24 -6 27 -52 12z m128 -22 c40 -40 -29 -178 -89 -178 -34 0 -36 12 -13 89 23
79 71 120 102 89z"/>
<path d="M250 415 c0 -13 18 -15 127 -13 90 2 128 7 131 16 3 9 -27 12 -127
12 -111 0 -131 -2 -131 -15z"/>
</g>
</svg>
